<svg xmlns="http://www.w3.org/2000/svg" xmlns:xlink="http://www.w3.org/1999/xlink" xmlns:ev="http://www.w3.org/2001/xml-events" version="1.1" width="714.521484375" height="688" viewBox="-20 -20 714.521484375 688"><text style="font-family: Verdana; font-size: 12px; font-weight: normal; fill: #000000; line-height: 15px;" transform="translate(269, 20)"><tspan x="0" y="0">1. Wer wurde unschuldig ins Camp geschickt?</tspan><tspan x="0" y="15">2. Name des Orts an dem die Jungen jeden Tag graben.</tspan><tspan x="0" y="30">3. Der beste Freund von Stanley</tspan><tspan x="0" y="45">4. Name des Erziehungslagers..</tspan><tspan x="0" y="60">5. Gegenstand den Stanley im Loch findet..</tspan><tspan x="0" y="75">6. Spitzname von Katherine Barlow..</tspan><tspan x="0" y="90">7. Welche Farbe haben die Punkte auf den gefährlichen</tspan><tspan x="0" y="105">Eidechsen?</tspan><tspan x="0" y="120">8. Wo leben die Eidechsen gerne?</tspan></text><g><g><rect x="4" y="423" width="35" height="35" fill="#000000"></rect><rect x="39" y="423" width="35" height="35" fill="#000000"></rect><rect x="74" y="423" width="35" height="35" fill="#000000"></rect><rect x="109" y="423" width="35" height="35" fill="#000000"></rect><rect x="144" y="423" width="35" height="35" fill="#000000"></rect><rect x="179" y="423" width="35" height="35" fill="#000000"></rect><rect x="214" y="423" width="35" height="35" fill="#000000"></rect><rect x="4" y="458" width="35" height="35" fill="#000000"></rect><rect x="109" y="458" width="35" height="35" fill="#000000"></rect><rect x="4" y="493" width="35" height="35" fill="#000000"></rect><rect x="109" y="493" width="35" height="35" fill="#000000"></rect><rect x="4" y="528" width="35" height="35" fill="#000000"></rect><rect x="109" y="528" width="35" height="35" fill="#000000"></rect><rect x="74" y="563" width="35" height="35" fill="#000000"></rect><rect x="109" y="563" width="35" height="35" fill="#000000"></rect><rect x="144" y="563" width="35" height="35" fill="#000000"></rect><rect x="179" y="563" width="35" height="35" fill="#000000"></rect><rect x="109" y="248" width="35" height="35" fill="#000000"></rect><rect x="109" y="283" width="35" height="35" fill="#000000"></rect><rect x="179" y="283" width="35" height="35" fill="#000000"></rect><rect x="109" y="318" width="35" height="35" fill="#000000"></rect><rect x="179" y="318" width="35" height="35" fill="#000000"></rect><rect x="4" y="353" width="35" height="35" fill="#000000"></rect><rect x="109" y="353" width="35" height="35" fill="#000000"></rect><rect x="179" y="353" width="35" height="35" fill="#000000"></rect><rect x="4" y="388" width="35" height="35" fill="#000000"></rect><rect x="109" y="388" width="35" height="35" fill="#000000"></rect><rect x="179" y="388" width="35" height="35" fill="#000000"></rect><rect x="39" y="73" width="35" height="35" fill="#000000"></rect><rect x="214" y="73" width="35" height="35" fill="#000000"></rect><rect x="39" y="108" width="35" height="35" fill="#000000"></rect><rect x="74" y="108" width="35" height="35" fill="#000000"></rect><rect x="109" y="108" width="35" height="35" fill="#000000"></rect><rect x="144" y="108" width="35" height="35" fill="#000000"></rect><rect x="179" y="108" width="35" height="35" fill="#000000"></rect><rect x="214" y="108" width="35" height="35" fill="#000000"></rect><rect x="39" y="143" width="35" height="35" fill="#000000"></rect><rect x="109" y="143" width="35" height="35" fill="#000000"></rect><rect x="214" y="143" width="35" height="35" fill="#000000"></rect><rect x="109" y="178" width="35" height="35" fill="#000000"></rect><rect x="109" y="213" width="35" height="35" fill="#000000"></rect><rect x="214" y="3" width="35" height="35" fill="#000000"></rect><rect x="39" y="38" width="35" height="35" fill="#000000"></rect><rect x="214" y="38" width="35" height="35" fill="#000000"></rect></g><g transform="translate(0, 420)"><rect x="0" y="0" width="35" height="35" fill="#ffffff" stroke="#000000" stroke-width="1"></rect><text style="line-height: 1; font-family: Verdana; font-size: 10px; font-weight: normal; fill: #000000;" x="-8.857422351837158" y="20.5">1</text><polygon style="fill: options.questionNumbers.color;" points="0,12.5 0,22.5 6.6000000000000005,17.5"></polygon></g><g transform="translate(35, 420)"><rect x="0" y="0" width="35" height="35" fill="#ffffff" stroke="#000000" stroke-width="1"></rect></g><g transform="translate(70, 420)"><rect x="0" y="0" width="35" height="35" fill="#ffffff" stroke="#000000" stroke-width="1"></rect></g><g transform="translate(105, 420)"><rect x="0" y="0" width="35" height="35" fill="#ffffff" stroke="#000000" stroke-width="1"></rect></g><g transform="translate(140, 420)"><rect x="0" y="0" width="35" height="35" fill="#ffffff" stroke="#000000" stroke-width="1"></rect></g><g transform="translate(175, 420)"><rect x="0" y="0" width="35" height="35" fill="#ffffff" stroke="#000000" stroke-width="1"></rect></g><g transform="translate(210, 420)"><rect x="0" y="0" width="35" height="35" fill="#ffffff" stroke="#000000" stroke-width="1"></rect></g><g transform="translate(0, 455)"><rect x="0" y="0" width="35" height="35" fill="#ffffff" stroke="#000000" stroke-width="1"></rect></g><g transform="translate(105, 455)"><rect x="0" y="0" width="35" height="35" fill="#ffffff" stroke="#000000" stroke-width="1"></rect></g><g transform="translate(0, 490)"><rect x="0" y="0" width="35" height="35" fill="#ffffff" stroke="#000000" stroke-width="1"></rect></g><g transform="translate(105, 490)"><rect x="0" y="0" width="35" height="35" fill="#ffffff" stroke="#000000" stroke-width="1"></rect></g><g transform="translate(0, 525)"><rect x="0" y="0" width="35" height="35" fill="#ffffff" stroke="#000000" stroke-width="1"></rect></g><g transform="translate(105, 525)"><rect x="0" y="0" width="35" height="35" fill="#ffffff" stroke="#000000" stroke-width="1"></rect></g><g transform="translate(70, 560)"><rect x="0" y="0" width="35" height="35" fill="#ffffff" stroke="#000000" stroke-width="1"></rect><text style="line-height: 1; font-family: Verdana; font-size: 10px; font-weight: normal; fill: #000000;" x="-8.857422351837158" y="20.5">3</text><polygon style="fill: options.questionNumbers.color;" points="0,12.5 0,22.5 6.6000000000000005,17.5"></polygon></g><g transform="translate(105, 560)"><rect x="0" y="0" width="35" height="35" fill="#ffffff" stroke="#000000" stroke-width="1"></rect></g><g transform="translate(140, 560)"><rect x="0" y="0" width="35" height="35" fill="#ffffff" stroke="#000000" stroke-width="1"></rect></g><g transform="translate(175, 560)"><rect x="0" y="0" width="35" height="35" fill="#ffffff" stroke="#000000" stroke-width="1"></rect></g><g transform="translate(105, 245)"><rect x="0" y="0" width="35" height="35" fill="#000000" stroke="#000000" stroke-width="1"></rect></g><g transform="translate(105, 280)"><rect x="0" y="0" width="35" height="35" fill="#ffffff" stroke="#000000" stroke-width="1"></rect></g><g transform="translate(175, 280)"><rect x="0" y="0" width="35" height="35" fill="#ffffff" stroke="#000000" stroke-width="1"></rect><text style="line-height: 1; font-family: Verdana; font-size: 10px; font-weight: normal; fill: #000000;" x="14.321288824081421" y="-3.5">2</text><polygon style="fill: options.questionNumbers.color;" points="12.5,0 22.5,0 17.5,6.6000000000000005"></polygon></g><g transform="translate(105, 315)"><rect x="0" y="0" width="35" height="35" fill="#ffffff" stroke="#000000" stroke-width="1"></rect></g><g transform="translate(175, 315)"><rect x="0" y="0" width="35" height="35" fill="#ffffff" stroke="#000000" stroke-width="1"></rect></g><g transform="translate(0, 350)"><rect x="0" y="0" width="35" height="35" fill="#ffffff" stroke="#000000" stroke-width="1"></rect><text style="line-height: 1; font-family: Verdana; font-size: 10px; font-weight: normal; fill: #000000;" x="14.321288824081421" y="-3.5">6</text><polygon style="fill: options.questionNumbers.color;" points="12.5,0 22.5,0 17.5,6.6000000000000005"></polygon></g><g transform="translate(105, 350)"><rect x="0" y="0" width="35" height="35" fill="#ffffff" stroke="#000000" stroke-width="1"></rect></g><g transform="translate(175, 350)"><rect x="0" y="0" width="35" height="35" fill="#ffffff" stroke="#000000" stroke-width="1"></rect></g><g transform="translate(0, 385)"><rect x="0" y="0" width="35" height="35" fill="#ffffff" stroke="#000000" stroke-width="1"></rect></g><g transform="translate(105, 385)"><rect x="0" y="0" width="35" height="35" fill="#ffffff" stroke="#000000" stroke-width="1"></rect></g><g transform="translate(175, 385)"><rect x="0" y="0" width="35" height="35" fill="#ffffff" stroke="#000000" stroke-width="1"></rect></g><g transform="translate(35, 70)"><rect x="0" y="0" width="35" height="35" fill="#ffffff" stroke="#000000" stroke-width="1"></rect></g><g transform="translate(210, 70)"><rect x="0" y="0" width="35" height="35" fill="#ffffff" stroke="#000000" stroke-width="1"></rect></g><g transform="translate(35, 105)"><rect x="0" y="0" width="35" height="35" fill="#ffffff" stroke="#000000" stroke-width="1"></rect><text style="line-height: 1; font-family: Verdana; font-size: 10px; font-weight: normal; fill: #000000;" x="-8.857422351837158" y="20.5">8</text><polygon style="fill: options.questionNumbers.color;" points="0,12.5 0,22.5 6.6000000000000005,17.5"></polygon></g><g transform="translate(70, 105)"><rect x="0" y="0" width="35" height="35" fill="#ffffff" stroke="#000000" stroke-width="1"></rect></g><g transform="translate(105, 105)"><rect x="0" y="0" width="35" height="35" fill="#ffffff" stroke="#000000" stroke-width="1"></rect><text style="line-height: 1; font-family: Verdana; font-size: 10px; font-weight: normal; fill: #000000;" x="14.321288824081421" y="-3.5">4</text><polygon style="fill: options.questionNumbers.color;" points="12.5,0 22.5,0 17.5,6.6000000000000005"></polygon></g><g transform="translate(140, 105)"><rect x="0" y="0" width="35" height="35" fill="#ffffff" stroke="#000000" stroke-width="1"></rect></g><g transform="translate(175, 105)"><rect x="0" y="0" width="35" height="35" fill="#ffffff" stroke="#000000" stroke-width="1"></rect></g><g transform="translate(210, 105)"><rect x="0" y="0" width="35" height="35" fill="#ffffff" stroke="#000000" stroke-width="1"></rect></g><g transform="translate(35, 140)"><rect x="0" y="0" width="35" height="35" fill="#ffffff" stroke="#000000" stroke-width="1"></rect></g><g transform="translate(105, 140)"><rect x="0" y="0" width="35" height="35" fill="#ffffff" stroke="#000000" stroke-width="1"></rect></g><g transform="translate(210, 140)"><rect x="0" y="0" width="35" height="35" fill="#ffffff" stroke="#000000" stroke-width="1"></rect></g><g transform="translate(105, 175)"><rect x="0" y="0" width="35" height="35" fill="#ffffff" stroke="#000000" stroke-width="1"></rect></g><g transform="translate(105, 210)"><rect x="0" y="0" width="35" height="35" fill="#ffffff" stroke="#000000" stroke-width="1"></rect></g><g transform="translate(210, 0)"><rect x="0" y="0" width="35" height="35" fill="#ffffff" stroke="#000000" stroke-width="1"></rect><text style="line-height: 1; font-family: Verdana; font-size: 10px; font-weight: normal; fill: #000000;" x="14.321288824081421" y="-3.5">5</text><polygon style="fill: options.questionNumbers.color;" points="12.5,0 22.5,0 17.5,6.6000000000000005"></polygon></g><g transform="translate(35, 35)"><rect x="0" y="0" width="35" height="35" fill="#ffffff" stroke="#000000" stroke-width="1"></rect><text style="line-height: 1; font-family: Verdana; font-size: 10px; font-weight: normal; fill: #000000;" x="14.321288824081421" y="-3.5">7</text><polygon style="fill: options.questionNumbers.color;" points="12.5,0 22.5,0 17.5,6.6000000000000005"></polygon></g><g transform="translate(210, 35)"><rect x="0" y="0" width="35" height="35" fill="#ffffff" stroke="#000000" stroke-width="1"></rect></g></g><text transform="translate(0, 648)" style="line-height: 1; font-family: Verdana; font-size: 12px; font-weight: normal; fill: #000000;"><tspan x="0" y="-15"></tspan></text></svg>
